<!DOCTYPE svg PUBLIC "-//W3C//DTD SVG 20010904//EN" "http://www.w3.org/TR/2001/REC-SVG-20010904/DTD/svg10.dtd"[]><svg version="1.0" xmlns="http://www.w3.org/2000/svg" width="60" height="80" viewBox="0 0 900.000000 900.000000" preserveAspectRatio="xMidYMid meet"><g transform="translate(0.000000,900.000000) scale(0.100000,-0.100000)" fill="#000000" stroke="none"><path d="M3680 7944 c-752 -54 -1405 -347 -1915 -858 -154 -155 -235 -253 -357 -436 -421 -632 -557 -1414 -373 -2150 195 -779 746 -1450 1490 -1815 94 -46 214 -100 269 -120 234 -86 512 -150 760 -175 175 -18 574 -8 741 19 413 67 786 205 1117 414 58 37 110 67 115 66 4 0 184 -212 398 -471 857 -1035 974 -1174 1021 -1210 214 -161 508 -181 742 -51 139 77 263 228 318 388 25 71 28 95 28 205 0 111 -4 134 -29 209 -34 99 -102 206 -176 277 -30 28 -247 204 -484 391 -884 697 -1145 905 -1145 910 0 3 33 56 74 117 236 353 376 716 443 1146 25 161 25 565 0 735 -69 468 -243 884 -535 1275 -103 137 -367 406 -502 510 -434 334 -915 533 -1460 604 -116 15 -439 27 -540 20z m520 -782 c472 -81 882 -290 1206 -617 495 -501 686 -1190 517 -1870 -160 -644 -670 -1193 -1319 -1418 -435 -151 -862 -172 -1313 -66 -463 110 -888 388 -1181 774 -645 846 -508 2026 315 2714 348 290 756 456 1240 505 100 10 424 -3 535 -22z" /><path d="M4534 6108 c-12 -5 -27 -21 -33 -34 -14 -31 -16 -2594 -2 -2594 17 0 206 82 271 117 150 82 311 197 428 307 l52 49 0 1054 0 1055 -29 29 -29 29 -319 -1 c-197 0 -326 -4 -339 -11z" /><path d="M2482 5427 l-22 -23 -1 -734 -1 -735 89 -78 c106 -94 274 -209 398 -270 92 -46 238 -107 255 -107 7 0 10 345 10 963 l0 964 -23 21 c-23 22 -28 22 -353 22 l-331 0 -21 -23z" /><path d="M3509 4795 c-15 -8 -32 -29 -38 -46 -8 -22 -11 -234 -11 -686 l0 -653 23 -9 c102 -39 534 -42 710 -5 l27 6 0 673 0 674 -24 28 -24 28 -319 2 c-263 2 -323 0 -344 -12z" /></g></svg>