<!DOCTYPE svg PUBLIC "-//W3C//DTD SVG 20010904//EN" "http://www.w3.org/TR/2001/REC-SVG-20010904/DTD/svg10.dtd"[]><svg version="1.0" xmlns="http://www.w3.org/2000/svg" width="61" height="80" viewBox="0 0 137.000000 123.000000" preserveAspectRatio="xMidYMid meet"><g transform="translate(0.000000,123.000000) scale(0.100000,-0.100000)" fill="#000000" stroke="none"><path d="M257 1055 c-21 -20 -30 -175 -26 -419 4 -194 4 -198 28 -217 22 -18 45 -19 438 -19 l414 0 24 25 25 24 0 288 c0 245 -2 292 -16 311 l-15 22 -429 0 c-364 0 -431 -2 -443 -15z m867 -31 c11 -28 7 -504 -4 -525 -10 -18 -25 -19 -418 -19 -239 0 -413 4 -422 10 -13 8 -16 51 -18 265 -3 189 0 260 8 271 11 12 78 14 430 14 372 0 419 -2 424 -16z" /><path d="M890 755 l0 -175 35 0 35 0 0 175 0 175 -35 0 -35 0 0 -175z" /><path d="M395 890 c-67 -44 -86 -145 -40 -213 14 -20 28 -37 30 -37 2 0 20 29 40 64 33 59 36 70 33 133 -3 77 -14 86 -63 53z" /><path d="M490 846 l0 -66 70 0 c39 0 70 2 70 5 0 3 -6 20 -14 38 -18 43 -55 75 -94 83 l-32 7 0 -67z" /><path d="M990 705 l0 -125 35 0 35 0 0 125 0 125 -35 0 -35 0 0 -125z" /><path d="M690 675 l0 -95 35 0 35 0 0 95 0 95 -35 0 -35 0 0 -95z" /><path d="M457 684 c-16 -31 -25 -59 -22 -63 15 -14 97 -3 123 16 27 20 72 79 72 94 0 5 -33 9 -73 9 l-73 0 -27 -56z m106 -4 c-32 -29 -78 -48 -89 -37 -3 3 2 19 11 36 14 28 20 31 63 31 l47 -1 -32 -29z" /><path d="M790 655 l0 -75 35 0 35 0 0 75 0 75 -35 0 -35 0 0 -75z" /><path d="M647 364 c-4 -4 -7 -16 -7 -26 0 -15 -8 -18 -55 -18 -43 0 -56 -4 -65 -19 -26 -50 -24 -51 180 -51 204 0 206 1 180 51 -9 15 -22 19 -65 19 -48 0 -54 2 -57 23 -3 19 -10 22 -53 25 -28 2 -54 0 -58 -4z" /></g></svg>