<!DOCTYPE svg PUBLIC "-//W3C//DTD SVG 20010904//EN" "http://www.w3.org/TR/2001/REC-SVG-20010904/DTD/svg10.dtd"[]><svg version="1.0" xmlns="http://www.w3.org/2000/svg" width="60" height="80" viewBox="0 0 256.000000 256.000000" preserveAspectRatio="xMidYMid meet"><g transform="translate(0.000000,256.000000) scale(0.100000,-0.100000)" fill="#000000" stroke="none"><path d="M1405 2439 c-136 -20 -262 -71 -373 -153 l-62 -46 -213 0 -212 0 -129 -200 -128 -200 -112 0 c-118 0 -140 -6 -134 -36 3 -18 14 -19 142 -19 l139 0 118 183 c65 101 123 190 130 198 9 12 72 14 375 14 l363 0 90 -37 c85 -34 90 -38 96 -71 10 -53 54 -92 105 -92 54 0 110 50 110 99 0 92 -97 147 -168 94 l-26 -20 -89 39 c-88 38 -89 38 -223 38 -74 0 -134 4 -134 9 0 18 205 111 280 127 170 36 364 13 512 -61 90 -45 118 -65 192 -135 79 -74 131 -146 176 -244 57 -122 74 -213 68 -366 l-6 -127 78 -141 78 -141 -72 -27 c-39 -14 -90 -35 -113 -45 l-43 -18 0 -210 0 -211 -156 0 c-88 0 -164 -4 -175 -10 -17 -10 -19 -22 -19 -145 l0 -135 -365 0 -366 0 1 281 c1 155 -2 285 -7 289 -4 4 -24 18 -44 31 -39 26 -119 96 -119 104 0 3 51 5 114 5 l113 0 104 -157 105 -158 86 -3 c77 -2 88 -5 93 -23 9 -28 63 -59 103 -59 25 0 43 9 68 34 62 62 39 152 -45 177 -47 14 -85 -1 -116 -46 -20 -30 -22 -30 -90 -27 -40 2 -73 9 -77 15 -4 7 -40 61 -82 122 -41 60 -73 111 -71 113 6 6 202 11 232 6 18 -4 33 -13 36 -24 13 -49 117 -71 159 -34 80 72 36 194 -71 194 -27 0 -42 -9 -72 -40 l-38 -40 -483 0 -484 0 -69 100 c-39 55 -101 145 -139 200 l-70 100 -113 0 c-92 0 -115 -3 -119 -15 -13 -34 15 -45 115 -45 l97 0 134 -195 135 -194 179 -1 179 0 72 -69 c40 -37 86 -76 104 -87 l31 -18 0 -266 -1 -265 -42 -20 c-86 -41 -98 -144 -24 -197 l32 -23 435 -3 c289 -2 447 0 472 8 20 6 48 24 62 41 51 60 23 157 -51 179 l-38 12 3 109 3 109 153 0 c106 0 157 4 169 13 15 10 17 39 19 226 l3 213 109 43 c61 23 114 49 119 57 7 11 -12 56 -76 174 l-86 159 10 78 c15 121 -12 291 -66 412 -150 341 -522 547 -890 494z m226 -309 c36 -20 14 -90 -28 -90 -19 0 -53 28 -53 44 0 19 30 56 46 56 9 0 24 -5 35 -10z m43 -1006 c31 -30 9 -84 -34 -84 -24 0 -50 26 -50 50 0 24 26 50 50 50 10 0 26 -7 34 -16z m46 -314 c23 -23 25 -40 8 -62 -20 -24 -44 -28 -67 -12 -25 18 -27 51 -4 76 21 23 38 23 63 -2z m233 -526 c35 -19 40 -62 10 -97 -15 -16 -49 -17 -452 -17 -379 0 -439 2 -459 16 -35 25 -25 93 16 106 7 2 203 4 435 5 346 1 427 -2 450 -13z" /><path d="M1586 2283 c-10 -24 4 -32 75 -49 35 -8 80 -21 101 -30 40 -18 58 -13 58 16 0 19 -67 50 -153 70 -59 14 -74 12 -81 -7z" /><path d="M1847 2203 c-17 -17 -2 -41 44 -72 146 -99 269 -320 269 -482 0 -50 20 -82 45 -73 23 9 26 33 15 115 -21 150 -80 276 -182 384 -93 100 -169 151 -191 128z" /><path d="M1047 2040 c-14 -11 -29 -29 -32 -40 -6 -19 -16 -20 -188 -20 l-182 -1 -112 -160 c-62 -88 -113 -170 -113 -182 0 -12 51 -94 113 -182 l113 -160 551 -3 c547 -2 552 -2 558 -23 8 -25 62 -59 93 -59 63 0 119 64 108 124 -9 47 -32 74 -75 87 -32 9 -44 8 -75 -6 -21 -10 -43 -29 -49 -42 l-10 -23 -248 0 -248 0 82 123 83 122 72 3 c68 3 73 2 83 -22 13 -29 64 -56 104 -56 17 0 39 12 61 34 27 27 34 42 34 73 0 105 -122 149 -187 68 -28 -35 -29 -35 -110 -35 l-81 0 -83 -117 c-45 -65 -92 -132 -103 -150 l-21 -32 -255 0 -255 0 -80 115 c-44 64 -81 120 -83 125 -2 5 81 9 205 9 l210 0 13 -25 c7 -13 29 -32 48 -41 48 -23 105 -6 132 39 25 40 25 73 1 113 -40 66 -143 68 -179 3 l-17 -29 -207 0 c-115 0 -208 3 -208 6 0 3 31 50 69 104 38 54 75 108 81 119 10 20 19 21 176 21 l165 0 33 -35 c28 -30 40 -35 77 -35 85 1 133 77 97 155 -24 54 -113 73 -161 35z m111 -83 c6 -49 -65 -70 -89 -25 -23 43 25 89 66 63 11 -7 21 -24 23 -38z m-90 -279 c32 -32 -5 -92 -49 -81 -29 8 -44 45 -30 72 13 23 59 29 79 9z m642 -8 c14 -26 5 -57 -21 -71 -43 -23 -92 44 -57 79 20 20 66 15 78 -8z m174 -306 c9 -8 16 -24 16 -34 0 -10 -7 -26 -16 -34 -32 -33 -84 -8 -84 39 0 40 54 59 84 29z" /><path d="M199 1664 c-9 -11 -10 -20 -2 -32 16 -26 151 -24 167 1 18 29 -17 47 -90 47 -44 0 -65 -5 -75 -16z" /><path d="M474 970 c-6 -36 -10 -41 -45 -52 -33 -9 -42 -9 -57 5 -30 27 -55 20 -105 -31 -51 -52 -57 -74 -28 -112 19 -24 19 -25 0 -62 -14 -27 -26 -38 -42 -38 -43 0 -48 -12 -45 -96 l3 -79 41 -13 c34 -11 43 -19 52 -49 10 -31 8 -40 -8 -64 -11 -15 -20 -31 -20 -36 0 -5 24 -36 54 -68 l54 -58 37 22 c33 19 41 20 71 9 29 -10 35 -18 41 -50 7 -45 20 -51 107 -46 62 3 70 9 80 60 4 19 15 30 41 38 30 10 38 9 65 -12 l31 -23 61 63 60 62 -22 35 c-19 31 -20 39 -10 70 8 25 19 37 38 41 54 12 53 9 50 96 l-3 83 -37 9 c-53 13 -75 70 -43 112 8 10 15 26 15 34 0 16 -99 120 -114 120 -4 0 -21 -9 -36 -20 -25 -18 -31 -19 -61 -6 -25 11 -36 23 -44 52 l-11 39 -82 3 -82 3 -6 -41z m136 -34 c5 -30 7 -32 82 -66 l48 -22 29 21 29 21 21 -26 c25 -32 25 -35 4 -72 -15 -27 -15 -32 -1 -63 9 -19 20 -46 23 -61 6 -22 16 -30 46 -38 37 -10 39 -13 39 -50 0 -37 -2 -40 -27 -40 -41 0 -49 -9 -74 -75 -21 -57 -21 -60 -5 -89 17 -29 16 -30 -8 -55 -25 -25 -27 -25 -55 -8 -27 16 -31 16 -89 -9 -53 -24 -61 -30 -67 -61 -6 -32 -8 -34 -42 -31 -30 3 -37 8 -47 36 -9 28 -21 37 -70 57 -59 24 -59 24 -86 5 l-27 -19 -26 27 -26 27 19 31 20 30 -26 66 c-23 60 -28 67 -60 72 -32 6 -34 9 -34 45 0 37 2 40 37 48 30 7 38 14 49 48 8 22 19 48 25 59 8 14 7 28 -7 57 -17 39 -17 40 5 63 l23 24 33 -19 33 -20 58 28 c48 23 60 34 68 61 8 30 12 33 45 30 31 -3 37 -7 41 -32z" /><path d="M477 759 c-57 -30 -97 -99 -97 -168 0 -114 70 -192 178 -198 93 -6 166 51 193 150 21 80 -28 184 -105 221 -46 22 -122 20 -169 -5z m185 -80 c76 -91 19 -229 -95 -229 -77 0 -130 56 -130 138 0 123 149 183 225 91z" /></g></svg>